<mxfile host="www.draw.io" modified="2019-11-19T14:53:07.546Z" agent="Mozilla/5.0 (Windows NT 10.0; Win64; x64) AppleWebKit/537.36 (KHTML, like Gecko) Chrome/78.0.3904.97 Safari/537.36" etag="clAvL0SvitJV2y0jWRc6" version="12.2.7" type="github" pages="1">
  <diagram id="_k7ATfRaIhLiad4DB_Zv" name="Page-1">
    <mxGraphModel dx="1902" dy="1037" grid="1" gridSize="10" guides="1" tooltips="1" connect="1" arrows="1" fold="1" page="1" pageScale="1" pageWidth="827" pageHeight="1169" math="0" shadow="0">
      <root>
        <mxCell id="0"/>
        <mxCell id="1" parent="0"/>
        <mxCell id="3WG7HzVJRfW7o0X7CnDg-6" value="" style="edgeStyle=orthogonalEdgeStyle;rounded=0;orthogonalLoop=1;jettySize=auto;html=1;" edge="1" parent="1" source="3WG7HzVJRfW7o0X7CnDg-2" target="3WG7HzVJRfW7o0X7CnDg-5">
          <mxGeometry relative="1" as="geometry"/>
        </mxCell>
        <mxCell id="3WG7HzVJRfW7o0X7CnDg-2" value="&lt;font style=&quot;font-size: 18px&quot;&gt;客户发起技术支持请求&lt;br&gt;&lt;/font&gt;" style="rounded=1;whiteSpace=wrap;html=1;" vertex="1" parent="1">
          <mxGeometry x="60" y="230" width="120" height="60" as="geometry"/>
        </mxCell>
        <mxCell id="3WG7HzVJRfW7o0X7CnDg-8" value="" style="edgeStyle=orthogonalEdgeStyle;rounded=0;orthogonalLoop=1;jettySize=auto;html=1;" edge="1" parent="1" source="3WG7HzVJRfW7o0X7CnDg-5">
          <mxGeometry relative="1" as="geometry">
            <mxPoint x="380" y="260" as="targetPoint"/>
          </mxGeometry>
        </mxCell>
        <mxCell id="3WG7HzVJRfW7o0X7CnDg-5" value="&lt;font style=&quot;font-size: 18px&quot;&gt;负责人回应技术支持请求&lt;br&gt;&lt;/font&gt;" style="rounded=1;whiteSpace=wrap;html=1;" vertex="1" parent="1">
          <mxGeometry x="220" y="230" width="120" height="60" as="geometry"/>
        </mxCell>
        <mxCell id="3WG7HzVJRfW7o0X7CnDg-15" value="" style="edgeStyle=orthogonalEdgeStyle;rounded=0;orthogonalLoop=1;jettySize=auto;html=1;" edge="1" parent="1" source="3WG7HzVJRfW7o0X7CnDg-9">
          <mxGeometry relative="1" as="geometry">
            <mxPoint x="570" y="180" as="targetPoint"/>
            <Array as="points">
              <mxPoint x="455" y="180"/>
            </Array>
          </mxGeometry>
        </mxCell>
        <mxCell id="3WG7HzVJRfW7o0X7CnDg-17" value="" style="edgeStyle=orthogonalEdgeStyle;rounded=0;orthogonalLoop=1;jettySize=auto;html=1;" edge="1" parent="1" source="3WG7HzVJRfW7o0X7CnDg-9">
          <mxGeometry relative="1" as="geometry">
            <mxPoint x="570" y="360" as="targetPoint"/>
            <Array as="points">
              <mxPoint x="455" y="360"/>
              <mxPoint x="510" y="360"/>
            </Array>
          </mxGeometry>
        </mxCell>
        <mxCell id="3WG7HzVJRfW7o0X7CnDg-9" value="&lt;span style=&quot;font-size: 18px&quot;&gt;依影响程度&lt;br&gt;选择处理流程&lt;br&gt;&lt;/span&gt;" style="rhombus;whiteSpace=wrap;html=1;" vertex="1" parent="1">
          <mxGeometry x="380" y="210" width="150" height="100" as="geometry"/>
        </mxCell>
        <mxCell id="3WG7HzVJRfW7o0X7CnDg-10" value="&lt;font style=&quot;font-size: 17px&quot;&gt;1.【推荐】除特殊情况外，只负责回应河长办人员&lt;br&gt;2.【强制】要求河长办人员在微信群中发起请求，否则不受理。&lt;br&gt;3.【推荐】可给河长办人员，使用禅道系统&lt;br&gt;&lt;/font&gt;" style="rounded=0;whiteSpace=wrap;html=1;align=left;fillColor=#dae8fc;strokeColor=#6c8ebf;" vertex="1" parent="1">
          <mxGeometry x="40" y="310" width="150" height="210" as="geometry"/>
        </mxCell>
        <mxCell id="3WG7HzVJRfW7o0X7CnDg-11" value="&lt;font style=&quot;font-size: 17px&quot;&gt;1.【推荐】在群里的任何人员，看到后第一时间回复收到，再到内部群中通知第一负责人处理&lt;br&gt;&lt;/font&gt;" style="rounded=0;whiteSpace=wrap;html=1;align=left;fillColor=#dae8fc;strokeColor=#6c8ebf;" vertex="1" parent="1">
          <mxGeometry x="205" y="310" width="150" height="130" as="geometry"/>
        </mxCell>
      </root>
    </mxGraphModel>
  </diagram>
</mxfile>
